<?xml version="1.0" encoding="UTF-8"?>
<!DOCTYPE svg PUBLIC "-//W3C//DTD SVG 1.1//EN" "http://www.w3.org/Graphics/SVG/1.1/DTD/svg11.dtd">
<!-- Creator: CorelDRAW X7 -->
<svg xmlns="http://www.w3.org/2000/svg" xml:space="preserve" width="250mm" height="250mm" version="1.1" style="shape-rendering:geometricPrecision; text-rendering:geometricPrecision; image-rendering:optimizeQuality; fill-rule:evenodd; clip-rule:evenodd"
viewBox="0 0 2404 2404"
 xmlns:xlink="http://www.w3.org/1999/xlink">
 <defs>
  <style type="text/css">
   <![CDATA[
    .str0 {stroke:#FEFEFE;stroke-width:6.25416}
    .fil6 {fill:none}
    .fil4 {fill:#FEFEFE}
    .fil5 {fill:#E31E24}
    .fil3 {fill:#009247}
    .fil0 {fill:#FF6B25}
    .fil1 {fill:#FEFEFE;fill-rule:nonzero}
    .fil2 {fill:#2B2A29;fill-rule:nonzero}
   ]]>
  </style>
 </defs>
 <g id="Layer_x0020_1">
  <metadata id="CorelCorpID_0Corel-Layer"/>
  <rect class="fil0" width="2404" height="2404"/>
  <g id="_1941431254464">
   <path class="fil1" d="M176 1121c-14,0 -24,-4 -31,-12 -8,-8 -11,-17 -11,-27 0,-7 1,-14 5,-20 3,-6 8,-12 14,-16l330 -244 -343 0 0 -78 451 0c14,0 24,5 31,13 7,8 11,17 11,28 0,6 -2,13 -5,19 -3,6 -7,12 -14,16l-330 244 346 0 0 77 -454 0z"/>
   <polygon id="1" class="fil1" points="695,1121 695,724 1183,724 1183,802 772,802 772,854 1108,854 1108,927 772,927 772,1044 1184,1044 1184,1121 "/>
   <path id="2" class="fil1" d="M1243 1121l0 -362c0,-13 4,-22 11,-29 7,-7 16,-11 25,-11 5,0 9,1 14,2 4,2 9,4 13,7l348 282 0 -286 78 0 0 364c0,12 -4,22 -11,29 -7,7 -16,10 -25,10 -5,0 -9,0 -14,-2 -4,-1 -9,-4 -13,-7l-348 -281 0 284 -78 0z"/>
   <path id="3" class="fil1" d="M1802 1121l0 -262c0,-43 13,-76 38,-100 25,-23 63,-35 115,-35l183 0c52,0 90,12 115,35 26,24 38,57 38,100l0 262 -78 0 0 -126 -333 0 0 126 -78 0zm78 -199l333 0 0 -63c0,-9 -1,-18 -3,-25 -2,-7 -7,-13 -12,-17 -6,-5 -14,-9 -24,-11 -9,-2 -22,-4 -36,-4l-182 0c-15,0 -27,2 -37,4 -10,2 -17,6 -23,11 -6,4 -10,10 -13,17 -2,7 -3,16 -3,25l0 63z"/>
   <path class="fil2" d="M134 1567l0 -43 188 0c10,0 17,-1 21,-4 5,-3 7,-8 7,-14l0 -22c0,-7 -2,-11 -7,-14 -4,-3 -11,-5 -21,-5l-125 0c-42,0 -63,-15 -63,-47l0 -27c0,-28 21,-42 62,-42l189 0 0 43 -190 0c-7,0 -11,1 -14,2 -2,1 -3,3 -3,6l0 13c0,3 1,6 3,7 3,2 7,3 14,3l127 0c13,0 24,1 33,3 10,3 17,7 23,12 5,5 9,11 12,18 2,8 4,16 4,26l0 26c0,9 -2,18 -4,25 -3,7 -7,14 -12,19 -6,5 -13,8 -23,11 -9,3 -20,4 -33,4l-188 0z"/>
   <polygon id="1" class="fil2" points="431,1567 431,1349 473,1349 473,1431 499,1431 631,1349 713,1349 542,1450 723,1567 644,1567 499,1469 473,1469 473,1567 "/>
   <polygon id="2" class="fil2" points="731,1567 731,1349 774,1349 774,1567 "/>
   <path id="3" class="fil2" d="M886 1567c-13,0 -25,-1 -34,-4 -9,-3 -16,-6 -22,-11 -5,-5 -10,-12 -12,-19 -3,-7 -4,-16 -4,-25l0 -100c0,-9 1,-18 4,-25 2,-7 7,-14 12,-19 6,-5 13,-8 22,-11 9,-2 21,-4 34,-4l196 0 0 43 -196 0c-10,0 -17,2 -21,5 -5,3 -7,7 -7,13l0 96c0,6 2,11 7,14 4,3 11,4 21,4l154 0 0 -64 -145 0 0 -39 166 0c6,0 11,2 15,6 4,4 6,9 6,15l0 125 -196 0z"/>
   <path id="4" class="fil2" d="M1118 1567l0 -218 196 0c13,0 24,2 34,4 9,3 16,6 22,11 5,5 9,12 12,19 3,7 4,16 4,25l0 22c0,10 -1,18 -4,25 -3,8 -7,14 -12,19 -6,5 -13,9 -22,11 -10,3 -21,4 -34,4l-33 0 111 78 -76 0 -103 -78 -53 0 0 78 -42 0zm42 -116l154 0c10,0 17,-2 21,-5 5,-3 7,-7 7,-13l0 -23c0,-6 -2,-10 -7,-13 -4,-3 -11,-5 -21,-5l-154 0 0 59z"/>
   <path id="5" class="fil2" d="M1485 1567c-13,0 -25,-1 -34,-4 -9,-3 -16,-6 -22,-11 -5,-5 -9,-12 -12,-19 -3,-7 -4,-16 -4,-25l0 -100c0,-9 1,-18 4,-25 3,-7 7,-14 12,-19 6,-5 13,-8 22,-11 9,-2 21,-4 34,-4l124 0c14,0 25,2 34,4 9,3 17,6 22,11 6,5 10,12 12,19 3,7 4,16 4,25l0 100c0,9 -1,18 -4,25 -2,7 -6,14 -12,19 -5,5 -13,8 -22,11 -9,3 -20,4 -34,4l-124 0zm-28 -61c0,6 2,11 7,14 4,3 11,4 21,4l125 0c9,0 16,-1 21,-4 4,-3 6,-8 6,-14l0 -96c0,-6 -2,-10 -6,-13 -5,-3 -12,-5 -21,-5l-125 0c-10,0 -17,2 -21,5 -5,3 -7,7 -7,13l0 96z"/>
   <path id="6" class="fil2" d="M1790 1567c-13,0 -24,-1 -34,-4 -9,-3 -16,-6 -22,-11 -5,-5 -9,-12 -12,-19 -2,-7 -4,-16 -4,-25l0 -159 44 0 0 157c0,6 2,11 7,14 4,3 11,4 21,4l123 0c10,0 17,-1 21,-4 5,-3 7,-8 7,-14l0 -157 44 0 0 159c0,9 -1,18 -4,25 -2,7 -7,14 -12,19 -6,5 -13,8 -22,11 -10,3 -21,4 -34,4l-123 0z"/>
   <path id="7" class="fil2" d="M2023 1567l0 -218 196 0c14,0 25,2 34,4 9,3 17,6 22,11 6,5 10,12 12,19 3,7 4,16 4,25l0 29c0,9 -1,18 -4,25 -2,8 -6,14 -12,19 -5,5 -13,8 -22,11 -9,3 -20,4 -34,4l-153 0 0 71 -43 0zm43 -111l154 0c9,0 16,-1 21,-4 4,-3 6,-8 6,-14l0 -28c0,-6 -2,-10 -6,-13 -5,-3 -12,-5 -21,-5l-154 0 0 64z"/>
   <g>
    <rect class="fil3" transform="matrix(1.436 0.00235013 -0.00235015 1.43599 133.919 1202.93)" width="500.775" height="46.8201"/>
    <rect class="fil4" transform="matrix(1.436 0.00235013 -0.00235015 1.43599 853.03 1204.11)" width="500.775" height="46.8201"/>
    <rect class="fil5" transform="matrix(1.436 0.00235013 -0.00235015 1.43599 1572.14 1205.28)" width="500.775" height="46.8201"/>
   </g>
   <g>
    <polygon class="fil6 str0" points="134,1203 2291,1203 2291,1274 134,1274 "/>
   </g>
  </g>
 </g>
</svg>
